<?xml version="1.0" encoding="UTF-8" standalone="no"?><!DOCTYPE svg PUBLIC "-//W3C//DTD SVG 1.1//EN" "http://www.w3.org/Graphics/SVG/1.1/DTD/svg11.dtd"><svg width="100%" height="100%" viewBox="0 0 4445 4445" version="1.1" xmlns="http://www.w3.org/2000/svg" xmlns:xlink="http://www.w3.org/1999/xlink" xml:space="preserve" style="fill-rule:evenodd;clip-rule:evenodd;stroke-linejoin:round;stroke-miterlimit:1.41421;"><g id="Object"><g><g opacity="0.399994"><clipPath id="_clip1"><rect x="518.888" y="80.038" width="3520.94" height="4135.2"/></clipPath><g clip-path="url(#_clip1)"><path d="M3813.25,3695.34l226.586,-29.915l-213.11,-1614.05l100.642,-1543.84l-307.132,-20.023l-53.798,-407.476l-2048.23,270.439l-501.611,-32.701l-6.507,99.791l-335.515,44.302l18.603,140.852l-174.284,20.293l306.293,2630.78l-43.866,672.813l123.132,8.032l32.674,280.601l1533.28,-178.514l1221.7,79.655l14.579,-223.589l127.824,-14.882l-21.257,-182.567Z" style="fill:#c7cad1;fill-rule:nonzero;"/></g></g></g><path d="M3879.68,3919.23l-3154.05,335.45l-383.493,-3774.36l3154.05,-335.457l383.494,3774.36Z" style="fill:#e9eaed;fill-rule:nonzero;"/><path d="M3741.43,3798.25l-2897.38,337.33l-418.234,-3592.22l2897.39,-337.331l418.227,3592.22Z" style="fill:#fff;fill-rule:nonzero;"/><path d="M1273.61,1243.59l-525.78,61.216l-61.223,-525.781l525.787,-61.215l61.216,525.78Zm-537.716,-425.558l50.942,437.488l437.488,-50.936l-50.936,-437.488l-437.494,50.936Z" style="fill:#333;"/><path d="M1163.11,916.685l-234.086,251.054l-124.96,-167.6l53.446,-39.849l77.221,103.571l179.62,-192.64l48.759,45.464Z" style="fill:#00d398;"/><path d="M3090.62,589.304l-1694.1,197.237l5.926,50.862l1694.09,-197.237l-5.913,-50.862Z" style="fill:#999;fill-rule:nonzero;"/><path d="M3108.22,740.521l-1694.09,197.237l5.92,50.862l1694.1,-197.237l-5.926,-50.862Z" style="fill:#999;fill-rule:nonzero;"/><path d="M2318.54,980.205l-887.448,103.321l5.927,50.862l887.44,-103.321l-5.919,-50.862Z" style="fill:#999;fill-rule:nonzero;"/><path d="M1346,1865.33l-525.78,61.215l-61.223,-525.78l525.787,-61.215l61.216,525.78Zm-537.716,-425.559l50.941,437.488l437.489,-50.935l-50.936,-437.488l-437.494,50.935Z" style="fill:#333;"/><path d="M1235.5,1538.42l-234.087,251.062l-124.96,-167.601l53.447,-39.849l77.22,103.571l179.619,-192.646l48.761,45.463Z" style="fill:#00d398;"/><path d="M3163,1211.04l-1694.09,197.244l5.926,50.855l1694.09,-197.237l-5.927,-50.862Z" style="fill:#999;fill-rule:nonzero;"/><path d="M3180.61,1362.26l-1694.09,197.244l5.92,50.855l1694.1,-197.237l-5.926,-50.862Z" style="fill:#999;fill-rule:nonzero;"/><path d="M2390.93,1601.94l-887.447,103.321l5.927,50.862l887.44,-103.321l-5.92,-50.862Z" style="fill:#999;fill-rule:nonzero;"/><path d="M1418.39,2487.05l-525.78,61.223l-61.223,-525.774l525.781,-61.222l61.222,525.773Zm-537.716,-425.545l50.942,437.481l437.488,-50.941l-50.942,-437.482l-437.488,50.942Z" style="fill:#333;"/><path d="M1307.88,2160.16l-234.085,251.038l-124.96,-167.591l53.446,-39.85l77.221,103.566l179.62,-192.628l48.758,45.465Z" style="fill:#00d398;"/><path d="M3235.39,1832.78l-1694.09,197.238l5.926,50.868l1694.09,-197.244l-5.927,-50.862Z" style="fill:#999;fill-rule:nonzero;"/><path d="M3252.99,1983.99l-1694.09,197.244l5.919,50.849l1694.1,-197.231l-5.926,-50.862Z" style="fill:#999;fill-rule:nonzero;"/><path d="M2463.32,2223.68l-887.447,103.327l5.926,50.856l887.441,-103.328l-5.92,-50.855Z" style="fill:#999;fill-rule:nonzero;"/><path d="M1490.78,3108.81l-525.78,61.208l-61.223,-525.787l525.788,-61.208l61.215,525.787Zm-537.716,-425.572l50.942,437.494l437.488,-50.929l-50.936,-437.495l-437.494,50.93Z" style="fill:#333;"/><path d="M1380.27,2781.89l-234.086,251.062l-124.961,-167.601l53.447,-39.849l77.22,103.57l179.62,-192.645l48.76,45.463Z" style="fill:#00d398;"/><path d="M3307.77,2454.52l-1694.09,197.238l5.927,50.862l1694.09,-197.238l-5.926,-50.862Z" style="fill:#999;fill-rule:nonzero;"/><path d="M3325.38,2605.72l-1694.09,197.251l5.919,50.849l1694.1,-197.238l-5.926,-50.862Z" style="fill:#999;fill-rule:nonzero;"/><path d="M2535.71,2845.42l-887.447,103.321l5.92,50.862l887.44,-103.321l-5.913,-50.862Z" style="fill:#999;fill-rule:nonzero;"/><path d="M1563.16,3730.53l-525.774,61.223l-61.222,-525.788l525.78,-61.208l61.216,525.773Zm-537.71,-425.558l50.942,437.494l437.482,-50.942l-50.936,-437.481l-437.488,50.929Z" style="fill:#333;"/><path d="M1452.66,3403.64l-234.086,251.047l-124.96,-167.6l53.447,-39.849l77.221,103.571l179.62,-192.633l48.758,45.464Z" style="fill:#00d398;"/><path d="M3380.16,3076.24l-1694.09,197.251l5.927,50.849l1694.09,-197.238l-5.926,-50.862Z" style="fill:#999;fill-rule:nonzero;"/><path d="M3397.77,3227.46l-1694.1,197.237l5.927,50.862l1694.1,-197.237l-5.927,-50.862Z" style="fill:#999;fill-rule:nonzero;"/><path d="M2608.09,3467.14l-887.441,103.334l5.92,50.849l887.447,-103.321l-5.926,-50.862Z" style="fill:#999;fill-rule:nonzero;"/></g></svg>