<?xml version="1.0" encoding="utf-8"?>
<!-- Generator: Adobe Illustrator 19.0.0, SVG Export Plug-In . SVG Version: 6.00 Build 0)  -->
<svg version="1.1" id="Layer_1" xmlns="http://www.w3.org/2000/svg" xmlns:xlink="http://www.w3.org/1999/xlink" x="0px" y="0px"
	 viewBox="0 0 414 105" style="enable-background:new 0 0 414 105;" xml:space="preserve">
<style type="text/css">
	.st0{fill:#616161;}
</style>
<g id="XMLID_2_">
	<path id="XMLID_3_" class="st0" d="M34.2,50.1L44,31.6h21.8L48.1,64.4L66.7,99H44.8L34.2,79L23.8,99h-22l18.7-34.6L2.7,31.6h22
		L34.2,50.1z"/>
	<path id="XMLID_5_" class="st0" d="M95.1,15v16.6h11.5v13.2H95.1v33.6c0,1.4,0.1,2.6,0.4,3.5c0.3,0.9,0.7,1.6,1.3,2.1
		c0.6,0.5,1.3,0.9,2.1,1.1c0.9,0.2,1.9,0.3,3,0.3c1.1,0,2.1,0,3-0.1c0.9-0.1,1.7-0.2,2.3-0.3v13.6c-1.5,0.5-3.1,0.8-4.9,1.2
		c-1.8,0.3-3.8,0.5-6,0.5c-2.9,0-5.6-0.4-8-1.1c-2.4-0.7-4.4-1.9-6.1-3.5c-1.7-1.6-3-3.6-3.9-6.2c-0.9-2.5-1.4-5.6-1.4-9.2V44.8
		V31.6V15H95.1z"/>
	<path id="XMLID_7_" class="st0" d="M145.8,100.2c-5.2,0-9.9-0.9-14-2.6c-4.1-1.7-7.6-4-10.5-7c-2.9-2.9-5.1-6.4-6.6-10.4
		c-1.5-4-2.3-8.2-2.3-12.7v-2.4c0-5.1,0.7-9.8,2.2-14c1.5-4.3,3.6-7.9,6.3-11c2.7-3.1,6-5.5,9.9-7.2c3.9-1.7,8.2-2.6,13-2.6
		c4.9,0,9.1,0.8,12.8,2.4c3.7,1.6,6.8,3.8,9.3,6.7c2.5,2.9,4.4,6.4,5.7,10.4c1.3,4.1,1.9,8.6,1.9,13.6v7.7h-42.9
		c0.3,2.2,0.9,4.2,1.8,6c0.9,1.8,2,3.3,3.4,4.6c1.4,1.3,3,2.3,4.9,3c1.9,0.7,4,1.1,6.3,1.1c3.3,0,6.3-0.6,9.1-1.8
		c2.8-1.2,5.2-3.1,7.2-5.7l8.8,9.9c-1.1,1.5-2.4,3-4,4.5c-1.6,1.5-3.5,2.8-5.7,3.9c-2.2,1.1-4.7,2.1-7.4,2.7
		C152.1,99.9,149.1,100.2,145.8,100.2z M143.8,44.9c-2,0-3.7,0.3-5.1,1c-1.5,0.7-2.7,1.6-3.8,2.9c-1.1,1.2-1.9,2.7-2.6,4.4
		c-0.7,1.7-1.1,3.6-1.4,5.7h25v-1.4c0-1.8-0.3-3.4-0.8-5c-0.5-1.5-1.2-2.9-2.2-4c-1-1.1-2.2-2-3.7-2.6
		C147.7,45.2,145.9,44.9,143.8,44.9z"/>
	<path id="XMLID_10_" class="st0" d="M220.3,80.3c0-1-0.2-1.8-0.6-2.6c-0.4-0.8-1.1-1.5-2.1-2.2s-2.4-1.3-4.2-2
		c-1.8-0.6-4.1-1.2-6.9-1.8c-3.4-0.7-6.6-1.7-9.6-2.8c-2.9-1.1-5.5-2.5-7.6-4.2c-2.1-1.7-3.8-3.6-5-5.8c-1.2-2.2-1.8-4.8-1.8-7.7
		c0-2.8,0.6-5.5,1.8-8c1.2-2.5,3-4.8,5.3-6.7c2.3-1.9,5.1-3.5,8.5-4.6c3.3-1.1,7.1-1.7,11.3-1.7c4.4,0,8.3,0.5,11.8,1.6
		c3.5,1.1,6.4,2.6,8.9,4.5c2.4,1.9,4.3,4.2,5.6,6.9c1.3,2.7,2,5.6,2,8.7h-18c0-2.6-0.8-4.7-2.5-6.4c-1.7-1.7-4.3-2.5-7.8-2.5
		c-3,0-5.4,0.7-7,2.1c-1.7,1.4-2.5,3.1-2.5,5.2c0,1,0.2,1.9,0.7,2.6c0.4,0.8,1.1,1.5,2.1,2.1c1,0.6,2.3,1.2,3.9,1.8
		c1.6,0.5,3.6,1,5.9,1.5c3.7,0.7,7,1.6,10.1,2.6c3.1,1,5.8,2.4,8.1,4c2.3,1.6,4,3.6,5.3,6c1.3,2.3,1.9,5.2,1.9,8.5
		c0,3-0.7,5.7-2,8.3c-1.3,2.5-3.2,4.7-5.7,6.5s-5.4,3.3-8.9,4.3c-3.5,1-7.4,1.6-11.7,1.6c-4.7,0-8.9-0.7-12.5-2s-6.7-3.1-9.1-5.2
		c-2.5-2.2-4.3-4.6-5.6-7.3c-1.2-2.7-1.9-5.4-1.9-8.2h17.1c0.1,1.7,0.5,3.2,1.2,4.5c0.7,1.3,1.6,2.3,2.7,3.1
		c1.1,0.8,2.4,1.4,3.9,1.7s3,0.6,4.6,0.6c3.4,0,6.1-0.7,7.8-2C219.4,84.2,220.3,82.5,220.3,80.3z"/>
	<path id="XMLID_12_" class="st0" d="M263.4,15v16.6h11.5v13.2h-11.5v33.6c0,1.4,0.1,2.6,0.4,3.5c0.3,0.9,0.7,1.6,1.3,2.1
		c0.6,0.5,1.3,0.9,2.1,1.1c0.9,0.2,1.9,0.3,3,0.3c1.1,0,2.1,0,3-0.1c0.9-0.1,1.7-0.2,2.3-0.3v13.6c-1.5,0.5-3.1,0.8-4.9,1.2
		c-1.8,0.3-3.8,0.5-6,0.5c-2.9,0-5.6-0.4-8-1.1c-2.4-0.7-4.4-1.9-6.1-3.5c-1.7-1.6-3-3.6-3.9-6.2c-0.9-2.5-1.4-5.6-1.4-9.2V44.8
		V31.6V15H263.4z"/>
	<path id="XMLID_14_" class="st0" d="M313.2,100.2c-5.2,0-9.9-0.9-14-2.6s-7.6-4-10.5-7c-2.9-2.9-5.1-6.4-6.6-10.4
		c-1.5-4-2.3-8.2-2.3-12.7v-2.4c0-5.1,0.7-9.8,2.2-14c1.5-4.3,3.6-7.9,6.3-11s6-5.5,9.9-7.2c3.9-1.7,8.2-2.6,13-2.6
		c4.9,0,9.1,0.8,12.8,2.4c3.7,1.6,6.8,3.8,9.3,6.7c2.5,2.9,4.4,6.4,5.7,10.4c1.3,4.1,1.9,8.6,1.9,13.6v7.7H298
		c0.3,2.2,0.9,4.2,1.8,6c0.9,1.8,2,3.3,3.4,4.6c1.4,1.3,3,2.3,4.9,3c1.9,0.7,4,1.1,6.3,1.1c3.3,0,6.3-0.6,9.1-1.8
		c2.8-1.2,5.2-3.1,7.2-5.7l8.8,9.9c-1.1,1.5-2.4,3-4,4.5c-1.6,1.5-3.5,2.8-5.7,3.9c-2.2,1.1-4.7,2.1-7.4,2.7
		C319.5,99.9,316.4,100.2,313.2,100.2z M311.1,44.9c-2,0-3.7,0.3-5.1,1c-1.5,0.7-2.7,1.6-3.8,2.9c-1.1,1.2-1.9,2.7-2.6,4.4
		c-0.7,1.7-1.1,3.6-1.4,5.7h25v-1.4c0-1.8-0.3-3.4-0.8-5c-0.5-1.5-1.2-2.9-2.2-4c-1-1.1-2.2-2-3.7-2.6
		C315,45.2,313.2,44.9,311.1,44.9z"/>
	<path id="XMLID_17_" class="st0" d="M348.3,64.8c0-5.1,0.6-9.8,1.8-14c1.2-4.2,2.9-7.9,5.1-10.9c2.2-3,5-5.4,8.3-7
		c3.3-1.7,7-2.5,11.2-2.5c3.4,0,6.5,0.6,9.2,1.9c2.7,1.3,5,3.1,7.1,5.4V3.3H409V99h-16.3l-0.9-7.2c-2.1,2.7-4.6,4.7-7.4,6.2
		c-2.8,1.5-6.1,2.2-9.9,2.2c-4.2,0-7.9-0.9-11.1-2.6c-3.3-1.7-6-4.1-8.3-7.1c-2.2-3-4-6.6-5.1-10.8c-1.2-4.2-1.8-8.7-1.8-13.6V64.8z
		 M366.3,66.1c0,2.7,0.2,5.3,0.7,7.7c0.5,2.4,1.2,4.4,2.2,6.2c1,1.8,2.3,3.2,4,4.2c1.6,1,3.6,1.5,6,1.5c2.9,0,5.3-0.6,7.3-1.9
		c1.9-1.2,3.4-3,4.5-5.2V52c-1.1-2.2-2.6-4-4.5-5.2c-1.9-1.2-4.3-1.8-7.1-1.8c-2.4,0-4.4,0.5-6,1.5s-3,2.4-4,4.2
		c-1,1.8-1.8,3.9-2.2,6.3c-0.5,2.4-0.7,5-0.7,7.8V66.1z"/>
</g>
<path id="XMLID_1_" class="st0" d="M260.1,37.8"/>
</svg>
